# AST/ASF file generated using VICON BodyLanguage
# -----------------------------------------------
:version 1.10
:name VICON
:units
  mass 1.0
  length 0.45
  angle deg
:documentation
   .ast/.asf automatically generated from VICON data using
   VICON BodyBuilder and BodyLanguage model FoxedUp or BRILLIANT.MOD
:root
   order TX TY TZ RX RY RZ
   axis XYZ
   position 0 0 0  
   orientation 0 0 0 
:bonedata
  begin
     id 1 
     name lhipjoint
     direction 0.650112 -0.723553 0.232005 
     length 2.45805 
     axis 0 0 0  XYZ
  end
  begin
     id 2 
     name lfemur
     direction 0.34202 -0.939693 0  
     length 7.00073  
     axis 0 0 20  XYZ
    dof rx ry rz
    limits (-160.0 20.0)
           (-70.0 70.0)
           (-60.0 70.0)
  end
  begin
     id 3 
     name ltibia
     direction 0.34202 -0.939693 0   
     length 7.8748   
     axis 0 0 20   XYZ
    dof rx
    limits (-10.0 170.0)
  end
  begin
     id 4 
     name lfoot
     direction 0.0542825 -0.14914 0.987325   
     length 1.75978   
     axis -90 7.62852e-016 20   XYZ
    dof rx rz
    limits (-45.0 90.0)
           (-70.0 20.0)
  end
  begin
     id 5 
     name ltoes
     direction 1.53509e-011 -4.21906e-011 1   
     length 0.893912   
     axis -90 7.62852e-016 20   XYZ
    dof rx
    limits (-90.0 20.0)
  end
  begin
     id 6 
     name rhipjoint
     direction -0.637897 -0.733345 0.235145   
     length 2.42522  
     axis 0 0 0  XYZ 
  end
  begin
     id 7 
     name rfemur
     direction -0.34202 -0.939693 0   
     length 7.02549   
     axis 0 0 -20   XYZ
    dof rx ry rz
    limits (-160.0 20.0)
           (-70.0 70.0)
           (-70.0 60.0)
  end
  begin
     id 8 
     name rtibia
     direction -0.34202 -0.939693 0   
     length 7.71512   
     axis 0 0 -20   XYZ
    dof rx
    limits (-10.0 170.0)
 end
 begin
     id 9 
     name rfoot
     direction -0.0822618 -0.226012 0.970645   
     length 1.90014  
     axis -90 -7.62852e-016 -20   XYZ
    dof rx rz
    limits (-45.0 90.0)
           (-20.0 70.0)
  end
  begin
     id 10 
     name rtoes
     direction -1.53542e-011 -4.21872e-011 1   
     length 0.957341   
     axis -90 -7.62852e-016 -20   XYZ
    dof rx
    limits (-90.0 20.0)
  end
  begin
     id 11 
     name lowerback
     direction -0.0022947 0.999774 -0.0211557   
     length 1.89909   
     axis 0 0 0   XYZ
    dof rx ry rz
    limits (-20.0 45.0)
           (-30.0 30.0)
           (-30.0 30.0)
  end
  begin
     id 12 
     name upperback
     direction 0.0107737 0.998635 0.0511027   
     length 1.8853   
     axis 0 0 0   XYZ
    dof rx ry rz
    limits (-20.0 45.0)
           (-30.0 30.0)
           (-30.0 30.0)
  end
  begin
     id 13 
     name thorax
     direction 0.011824 0.998136 0.0598754   
     length 1.88911   
     axis 0 0 0   XYZ
    dof rx ry rz
    limits (-20.0 45.0)
           (-30.0 30.0)
           (-30.0 30.0)
  end
  begin
     id 14 
     name lowerneck
     direction -0.0685355 0.990319 0.120714   
     length 1.91222   
     axis 0 0 0   XYZ
    dof rx ry rz
    limits (-20.0 45.0)
           (-30.0 30.0)
           (-30.0 30.0)
  end
  begin
     id 15 
     name upperneck
     direction 0.0886204 0.955665 -0.280805   
     length 1.92526   
     axis 0 0 0   XYZ
    dof rx ry rz
    limits (-20.0 45.0)
           (-30.0 30.0)
           (-30.0 30.0)
  end
  begin
     id 16
     name head
     direction 0.0233423 0.993502 -0.111393  
     length 1.96056  
     axis 0 0 0   XYZ
    dof rx ry rz
    limits (-20.0 45.0)
           (-30.0 30.0)
           (-30.0 30.0)
  end
  begin
     id 17 
     name lclavicle
     direction 0.941873 0.32922 0.0670041  
     length 3.31705  
     axis 0 0 0   XYZ
    dof ry rz
    limits (-20.0 10.0)
           (0.0 20.0)
  end
  begin
     id 18 
     name lhumerus
     direction 1 -4.4898e-011 3.38707e-028   
     length 5.29277   
     axis 180 -30 -90   XYZ
    dof rx ry rz
    limits (-60.0 90.0)
           (-90.0 90.0)
           (-90.0 90.0)
  end
  begin
     id 19
     name lradius
     direction 1 -4.48952e-011 1.63213e-028   
     length 2.85226   
     axis 180 -30 -90   XYZ
    dof rx
    limits (-10.0 170.0)
  end
  begin
     id 20
     name lwrist
     direction 1 -4.49001e-011 1.27856e-027   
     length 1.42613   
     axis -1.61767e-015 90 90   XYZ
    dof ry
    limits (-180.0 0.0)
 end
  begin
     id 21 
     name lhand
     direction 1 -4.48976e-011 2.55931e-027   
     length 0.602097   
     axis -1.63363e-015 90 90   XYZ
    dof rx rz
    limits (-90.0 90.0)
           (-45.0 45.0)
  end
  begin
     id 22 
     name lfingers
     direction 1 -4.48986e-011 5.11684e-027   
     length 0.485426   
     axis -3.26723e-015 90 90   XYZ
    dof rx
    limits (0.0 90.0)
  end
  begin
     id 23
     name lthumb
     direction 0.707107 -6.34915e-011 0.707107   
     length 0.696978   
     axis -90 45 -2.25915e-014   XYZ
    dof rx rz
    limits (-45.0 45.0)
           (-45.0 45.0)
  end
  begin
     id 24 
     name rclavicle
     direction -0.939974 0.327078 0.0973096   
     length 3.10337  
     axis 0 0 0   XYZ 
    dof ry rz
    limits (-10.0 20.0)
           (-20.0 0.0)
  end
  begin
     id 25 
     name rhumerus
     direction -1 -4.48975e-011 1.83745e-027  
     length 5.13304   
     axis 180 30 90   XYZ
    dof rx ry rz
    limits (-90.0 60.0)
           (-90.0 90.0)
           (-90.0 90.0)
  end
  begin
     id 26 
     name rradius
     direction -1 -4.48977e-011 7.1775e-029   
     length 2.74305   
     axis 180 30 90   XYZ
    dof rx
    limits (-10.0 170.0)
  end
  begin
     id 27 
     name rwrist
     direction -1 -4.48977e-011 1.27963e-027   
     length 1.37152   
     axis -1.61767e-015 -90 -90   XYZ
    dof ry
    limits (-180.0 0.0)
  end
  begin
     id 28
     name rhand
     direction -1 -4.4888e-011 2.56782e-027   
     length 0.767976   
     axis -1.63363e-015 -90 -90   XYZ
    dof rx rz
    limits (-90.0 90.0)
           (-45.0 45.0)
  end
  begin
     id 29
     name rfingers
     direction -1 -4.48947e-011 5.12384e-027   
     length 0.619162   
     axis -3.26723e-015 -90 -90   XYZ
    dof rx
    limits (0.0 90.0)
  end
  begin
     id 30
     name rthumb
     direction -0.707107 -6.34857e-011 0.707107   
     length 0.888997   
     axis -90 -45 2.25915e-014   XYZ
    dof rx rz
    limits (-45.0 45.0)
           (-45.0 45.0)
  end
:hierarchy
  begin
    root lhipjoint rhipjoint lowerback
    lhipjoint lfemur
    lfemur ltibia
    ltibia lfoot
    lfoot ltoes
    rhipjoint rfemur
    rfemur rtibia
    rtibia rfoot
    rfoot rtoes
    lowerback upperback
    upperback thorax
    thorax lowerneck lclavicle rclavicle
    lowerneck upperneck
    upperneck head
    lclavicle lhumerus
    lhumerus lradius
    lradius lwrist
    lwrist lhand lthumb
    lhand lfingers
    rclavicle rhumerus
    rhumerus rradius
    rradius rwrist
    rwrist rhand rthumb
    rhand rfingers
  end

#!OML:ASF F:\VICON\USERDATA\INSTALL\rory3\rory3.ASF
:FULLY-SPECIFIED
:DEGREES
566
root -0.0579663 16.8997 -1.78811 33.9346 4.26458 -3.42608
lowerback 15.5755 -1.36537 0.195785
upperback -1.16362 -1.46184 3.12901
thorax -9.96176 -0.607071 3.63749
lowerneck -6.37491 -9.48553 -17.8861
upperneck -8.47749 -11.2057 30.5992
head 1.90094 -5.54699 12.3308
rclavicle 2.88238e-015 4.67144e-015
rhumerus 5.79289 10.6883 -85.9837
rradius 114.764
rwrist 27.6405
rhand 21.3191 3.19917
rfingers 7.12502
rthumb 45.7619 -19.9939
lclavicle 2.88238e-015 4.67144e-015
lhumerus 24.6423 -14.3527 80.3728
lradius 111.854
lwrist -17.266
lhand 19.2092 36.3925
lfingers 7.12502
lthumb 43.7977 60.3505
rfemur -53.9201 3.87597 19.601
rtibia 32.5644
rfoot -13.0415 -6.82033
rtoes -26.8385
lfemur -58.2831 -8.31772 -4.88263
ltibia 37.7411
lfoot -13.54 8.13385
ltoes -21.3071
567
root -0.0605108 16.8906 -1.78813 34.3361 4.71544 -3.19906
lowerback 15.2438 -1.47986 0.390011
upperback -1.27065 -1.57546 3.20215
thorax -9.88619 -0.670486 3.62338
lowerneck -6.47434 -9.71078 -18.3576
upperneck -8.44442 -11.5013 30.7787
head 2.05306 -5.67559 12.4409
rclavicle -7.65321e-015 -1.15295e-014
rhumerus 5.65867 9.77182 -86.367
rradius 115.025
rwrist 28.1671
rhand 21.1454 2.40182
rfingers 7.12502
rthumb 45.6006 -20.8572
lclavicle -7.65321e-015 -1.15295e-014
lhumerus 24.6979 -14.9408 80.1866
lradius 111.553
lwrist -17.1523
lhand 19.6442 36.1656
lfingers 7.12502
lthumb 44.2035 59.9722
rfemur -54.4449 3.88724 19.2681
rtibia 32.8902
rfoot -12.9413 -7.43563
rtoes -26.3628
lfemur -58.7958 -8.34793 -4.994
ltibia 37.6347
lfoot -13.3128 7.76919
ltoes -21.3067
568
root -0.0648288 16.8782 -1.78676 34.8548 5.20381 -2.64095
lowerback 14.8459 -1.63632 0.59968
upperback -1.43651 -1.7623 3.08758
thorax -9.83928 -0.775178 3.41118
lowerneck -6.50436 -9.92258 -18.814
upperneck -8.51992 -11.7621 30.8243
head 2.14072 -5.79449 12.5052
rclavicle -2.93207e-014 -1.15295e-014
rhumerus 5.61641 8.98299 -86.7285
rradius 115.319
rwrist 28.661
rhand 20.5587 1.6396
rfingers 7.12502
rthumb 45.0552 -21.8382
lclavicle -2.93207e-014 -1.15295e-014
lhumerus 24.315 -15.4979 80.1362
lradius 111.468
lwrist -17.197
lhand 20.0283 35.9083
lfingers 7.12502
lthumb 44.5614 59.5786
rfemur -55.2134 3.63061 18.7058
rtibia 33.4359
rfoot -12.8729 -8.07106
rtoes -26.6989
lfemur -59.3907 -8.49122 -5.4173
ltibia 37.3749
lfoot -13.0911 7.33845
ltoes -21.5946
569
root -0.0760219 16.8707 -1.78042 35.2872 5.53763 -1.97742
lowerback 14.5291 -1.76039 0.906291
upperback -1.58937 -1.91511 2.69748
thorax -9.84013 -0.877266 2.83969
lowerneck -6.29081 -10.0602 -19.1068
upperneck -8.82971 -11.9125 30.8257
head 2.07803 -5.88973 12.5528
rclavicle 5.26779e-015 1.98785e-016
rhumerus 5.70733 8.16905 -87.2539
rradius 115.639
rwrist 29.1316
rhand 20.4714 1.47338
rfingers 7.12502
rthumb 44.974 -22.0364
lclavicle 5.26779e-015 1.98785e-016
lhumerus 23.6554 -15.9827 80.0567
lradius 111.535
lwrist -17.2097
lhand 20.5789 35.8956
lfingers 7.12502
lthumb 45.074 59.3659
rfemur -55.9694 3.52258 17.9289
rtibia 34.096
rfoot -12.756 -8.85107
rtoes -27.6623
lfemur -59.7527 -8.53467 -6.08814
ltibia 36.9946
lfoot -12.8679 6.77122
ltoes -21.5334
570
root -0.0902715 16.8679 -1.77087 35.5926 5.6457 -1.29484
lowerback 14.2135 -1.80235 1.15066
upperback -1.62251 -1.98287 2.20833
thorax -9.71692 -0.940196 2.17426
lowerneck -6.09181 -10.1936 -19.3311
upperneck -9.27338 -12.0311 30.6346
head 1.94723 -5.97093 12.5204
rclavicle 1.04362e-014 -2.39536e-014
rhumerus 6.16761 7.59351 -87.6707
rradius 115.904
rwrist 29.3666
rhand 20.5079 1.55175
rfingers 7.12502
rthumb 45.0079 -21.9447
lclavicle 1.04362e-014 -2.39536e-014
lhumerus 22.7679 -16.4474 80.1072
lradius 111.663
lwrist -16.898
lhand 19.9396 36.1661
lfingers 7.12502
lthumb 44.4788 59.8681
rfemur -56.5761 3.62643 16.9799
rtibia 34.7772
rfoot -12.6923 -9.71777
rtoes -28.0862
lfemur -59.8125 -8.40279 -6.99387
ltibia 36.4989
lfoot -12.5923 6.11775
ltoes -21.8571
571
root -0.105354 16.8659 -1.76204 35.8637 5.5305 -0.603749
lowerback 13.919 -1.78254 1.20539
upperback -1.63048 -1.99825 1.75162
thorax -9.573 -0.966403 1.64208
lowerneck -5.92783 -10.2912 -19.7395
upperneck -9.72944 -12.0854 30.3567
head 1.80569 -6.00893 12.4996
rclavicle 1.44616e-014 -7.85199e-015
rhumerus 6.86194 7.41926 -87.8642
rradius 116.077
rwrist 29.6109
rhand 20.2863 1.78531
rfingers 7.12502
rthumb 44.8017 -21.7919
lclavicle 1.44616e-014 -7.85199e-015
lhumerus 21.4674 -16.5795 80.5363
lradius 111.966
lwrist -16.7353
lhand 19.0934 36.4543
lfingers 7.12502
lthumb 43.6896 60.452
rfemur -57.0554 3.79665 15.9627
rtibia 35.3693
rfoot -12.8039 -10.4524
rtoes -27.3382
lfemur -59.7216 -8.13665 -8.03504
ltibia 35.9089
lfoot -12.3578 5.38214
ltoes -21.7603
572
root -0.121254 16.8691 -1.75359 36.0178 5.15746 0.247425
lowerback 13.7862 -1.73131 0.984794
upperback -1.59087 -2.02264 1.20686
thorax -9.46387 -0.984001 1.17935
lowerneck -5.84637 -10.3529 -20.2783
upperneck -10.0807 -12.0953 30.1462
head 1.71211 -6.00991 12.5308
rclavicle 1.96797e-014 -6.16232e-015
rhumerus 7.76235 7.47095 -88.028
rradius 116.178
rwrist 29.9805
rhand 19.8432 2.14206
rfingers 7.12502
rthumb 44.389 -21.5942
lclavicle 1.96797e-014 -6.16232e-015
lhumerus 19.951 -16.2341 81.168
lradius 112.387
lwrist -16.8626
lhand 19.1211 36.6764
lfingers 7.12502
lthumb 43.7154 60.6646
rfemur -57.3324 3.95913 14.7384
rtibia 35.855
rfoot -12.9495 -11.0536
rtoes -26.4424
lfemur -59.3793 -7.83422 -9.37974
ltibia 35.2203
lfoot -12.1047 4.69948
ltoes -21.7474
573
root -0.138562 16.8799 -1.74339 35.9012 4.62217 1.00623
lowerback 13.8146 -1.64107 0.833651
upperback -1.45443 -1.99302 0.513876
thorax -9.35074 -0.982955 0.511436
lowerneck -5.72494 -10.3421 -20.598
upperneck -10.3462 -12.0361 29.9192
head 1.59965 -5.98117 12.5262
rclavicle 2.56432e-014 -3.97569e-015
rhumerus 8.76856 7.60894 -88.3305
rradius 116.283
rwrist 30.1563
rhand 19.3519 2.24614
rfingers 7.12502
rthumb 43.9309 -21.6625
lclavicle 2.56432e-014 -3.97569e-015
lhumerus 18.3113 -15.7413 81.5954
lradius 112.776
lwrist -16.8158
lhand 19.3568 36.556
lfingers 7.12502
lthumb 43.9354 60.463
rfemur -57.3367 4.30343 13.5532
rtibia 36.2415
rfoot -12.9921 -11.6331
rtoes -25.9493
lfemur -58.6251 -7.43451 -10.7322
ltibia 34.4113
lfoot -11.8672 3.94064
ltoes -20.355
574
root -0.14998 16.9001 -1.7327 35.6502 3.77543 1.79995
lowerback 13.8762 -1.43104 0.538628
upperback -1.32051 -1.83842 -0.303134
thorax -9.25791 -0.917644 -0.232878
lowerneck -5.457 -10.2889 -20.7335
upperneck -10.5215 -11.9664 29.5858
head 1.459 -5.95674 12.4546
rclavicle -4.07509e-015 -6.85807e-015
rhumerus 9.70919 7.81644 -88.5581
rradius 116.384
rwrist 30.0206
rhand 19.0597 2.21657
rfingers 7.12502
rthumb 43.6582 -21.7926
lclavicle -4.07509e-015 -6.85807e-015
lhumerus 16.4903 -15.2076 81.989
lradius 113.106
lwrist -16.7155
lhand 19.5369 36.3704
lfingers 7.12502
lthumb 44.1035 60.2146
rfemur -57.2208 4.72863 12.2318
rtibia 36.557
rfoot -13.2294 -11.937
rtoes -24.7504
lfemur -57.5855 -7.00733 -12.2188
ltibia 33.4918
lfoot -11.5962 3.26266
ltoes -18.1521
575
root -0.155292 16.9231 -1.72562 35.3377 2.71961 2.80773
lowerback 14.202 -1.16101 -0.075103
upperback -1.28007 -1.66079 -1.12601
thorax -9.40751 -0.824756 -0.802336
lowerneck -5.21038 -10.2664 -21.0104
upperneck -10.5245 -11.9645 29.2422
head 1.39496 -5.95325 12.3901
rclavicle -9.93923e-017 2.5842e-015
rhumerus 10.6145 8.25903 -88.5548
rradius 116.36
rwrist 30
rhand 18.7487 2.08025
rfingers 7.12502
rthumb 43.3677 -22.0345
lclavicle -9.93923e-017 2.5842e-015
lhumerus 14.546 -14.5541 82.5155
lradius 113.327
lwrist -16.6179
lhand 19.3442 36.2371
lfingers 7.12502
lthumb 43.9237 60.1484
rfemur -57.0304 5.03559 10.6676
rtibia 36.8181
rfoot -13.6154 -11.9567
rtoes -22.9277
lfemur -56.4475 -6.71764 -13.936
ltibia 32.5435
lfoot -11.2431 2.85828
ltoes -17.5533
576
root -0.162622 16.9405 -1.7249 34.8688 1.75691 3.78574
lowerback 14.7753 -0.952354 -0.717277
upperback -1.15517 -1.57108 -1.86553
thorax -9.60472 -0.769501 -1.24824
lowerneck -5.17502 -10.2568 -21.3092
upperneck -10.4887 -11.9526 28.9421
head 1.38184 -5.92971 12.3356
rclavicle 2.127e-014 7.15625e-015
rhumerus 11.8428 9.0651 -88.3367
rradius 116.314
rwrist 29.7706
rhand 18.705 1.329
rfingers 7.12502
rthumb 43.3268 -22.8004
lclavicle 2.127e-014 7.15625e-015
lhumerus 12.72 -13.6301 83.0151
lradius 113.352
lwrist -16.5955
lhand 18.9149 35.7113
lfingers 7.12502
lthumb 43.523 59.7698
rfemur -56.7155 5.28864 9.25432
rtibia 37.0691
rfoot -13.8669 -11.9799
rtoes -21.4585
lfemur -55.2498 -6.5125 -15.528
ltibia 31.6278
lfoot -10.8498 2.58703
ltoes -18.9943
577
root -0.171503 16.9472 -1.72666 34.4887 0.984518 4.4725
lowerback 15.2584 -0.778794 -0.974735
upperback -1.04211 -1.46464 -2.58628
thorax -9.77201 -0.726481 -1.90283
lowerneck -5.16477 -10.2033 -21.402
upperneck -10.4353 -11.8838 28.6462
head 1.35028 -5.88269 12.2519
rclavicle -1.10325e-014 6.36111e-015
rhumerus 13.2402 9.9074 -88.0312
rradius 116.147
rwrist 29.4321
rhand 19.1532 0.688657
rfingers 7.12502
rthumb 43.7454 -23.2885
lclavicle -1.10325e-014 6.36111e-015
lhumerus 10.9602 -12.7279 83.291
lradius 113.35
lwrist -16.6484
lhand 18.6271 34.8263
lfingers 7.12502
lthumb 43.254 58.9819
rfemur -56.5348 5.47497 8.31805
rtibia 37.3127
rfoot -13.9537 -12.0172
rtoes -20.9092
lfemur -54.2834 -6.35703 -16.5932
ltibia 30.8157
lfoot -10.5855 2.46455
ltoes -20.3943
578
root -0.176544 16.9541 -1.72877 34.2461 0.0942191 5.05138
lowerback 15.6252 -0.628608 -1.04084
upperback -0.973719 -1.3715 -3.44964
thorax -9.92995 -0.705803 -2.82614
lowerneck -5.39666 -10.1062 -21.2324
upperneck -10.213 -11.7474 28.3674
head 1.37471 -5.79034 12.1199
rclavicle 1.19271e-014 1.47101e-014
rhumerus 14.6499 10.7406 -87.9626
rradius 115.653
rwrist 29.5461
rhand 19.6186 1.28718
rfingers 7.12502
rthumb 44.1796 -22.5284
lclavicle 1.19271e-014 1.47101e-014
lhumerus 9.51072 -12.0023 83.0376
lradius 113.493
lwrist -16.6947
lhand 18.3783 34.3944
lfingers 7.12502
lthumb 43.0215 58.6328
rfemur -56.5407 5.65095 7.48904
rtibia 37.5153
rfoot -13.9852 -11.893
rtoes -20.2729
lfemur -53.544 -6.23092 -17.4673
ltibia 30.1742
lfoot -10.4708 2.63143
ltoes -21.3934
579
root -0.179154 16.9619 -1.73076 34.0827 -0.824306 5.5406
lowerback 15.836 -0.514033 -1.21535
upperback -0.867625 -1.331 -4.20229
thorax -9.9518 -0.701067 -3.55999
lowerneck -5.84081 -9.97808 -21.0909
upperneck -9.96955 -11.5324 28.1466
head 1.43073 -5.64497 12.0158
rclavicle 2.38542e-015 9.54166e-015
rhumerus 16.0476 11.7898 -87.9211
rradius 115.095
rwrist 29.8585
rhand 20.0372 2.0451
rfingers 7.12502
rthumb 44.5697 -21.622
lclavicle 2.38542e-015 9.54166e-015
lhumerus 8.68007 -11.2253 82.7164
lradius 113.486
lwrist -16.8454
lhand 18.1856 34.6556
lfingers 7.12502
lthumb 42.8412 58.9574
rfemur -56.6302 5.86704 6.70242
rtibia 37.6624
rfoot -14.1342 -11.6563
rtoes -19.0993
lfemur -53.0037 -6.16307 -18.1746
ltibia 29.7229
lfoot -10.4938 2.9214
ltoes -20.949
580
root -0.181613 16.966 -1.73197 34.0437 -1.61034 5.86777
lowerback 15.9073 -0.30633 -1.63514
upperback -0.836134 -1.1778 -4.61114
thorax -9.95308 -0.618817 -3.80693
lowerneck -6.07083 -9.81799 -20.9935
upperneck -9.84015 -11.2887 27.749
head 1.3967 -5.49798 11.8724
rclavicle -9.74045e-015 -1.27222e-014
rhumerus 16.9957 12.8698 -87.4194
rradius 114.736
rwrist 29.889
rhand 20.4646 2.3119
rfingers 7.12502
rthumb 44.9677 -21.2004
lclavicle -9.74045e-015 -1.27222e-014
lhumerus 8.2852 -10.6022 82.8123
lradius 113.246
lwrist -17.1346
lhand 18.2107 35.04
lfingers 7.12502
lthumb 42.8647 59.3336
rfemur -56.8186 6.06323 6.10383
rtibia 37.7572
rfoot -14.407 -11.3393
rtoes -17.5528
lfemur -52.7079 -6.14021 -18.6166
ltibia 29.435
lfoot -10.5018 3.29335
ltoes -20.5656
